# xmcd
#
# Track frame offsets: 
#        150
#        33266
#        75993
#        103490
#        137734
#        197638
#        232475
#        276800
#        339930
#
# Disc length: 4762 seconds
#
# Revision: 1
# Processed by: cddbd v1.5.2PL0 Copyright (c) Steve Scherf et al.
# Submitted via: ExactAudioCopy v1.0b3
#
DISCID=7d129809
DTITLE=Chat Noir - Decoupage
DYEAR=2007
DGENRE=Jazz
TTITLE0=Dans La Pluie
TTITLE1=Citta Di Mezzo
TTITLE2=Soft Focus
TTITLE3=Impasse
TTITLE4=Trilogy: A)Private Eye B)Colours C)Closed Room
TTITLE5=Via Del Campo
TTITLE6=Gare Des Ombres
TTITLE7=L'elefante Nel Negozio Di Cocci
TTITLE8=Noir451
EXTD=YEAR: 2007
EXTT0=
EXTT1=
EXTT2=
EXTT3=
EXTT4=
EXTT5=
EXTT6=
EXTT7=
EXTT8=
PLAYORDER=
